<svg version="1.1" id="Layer_1" xmlns="http://www.w3.org/2000/svg" xmlns:xlink="http://www.w3.org/1999/xlink" x="0px" y="0px"
	 width="100%" viewBox="0 0 500 500" enable-background="new 0 0 500 500" xml:space="preserve">
<path fill="#272727" opacity="1.000000" stroke="none" 
	d="
M278.000000,501.000000 
	C185.333359,501.000000 93.166710,501.000000 1.000049,501.000000 
	C1.000033,334.333405 1.000033,167.666794 1.000016,1.000139 
	C167.666565,1.000093 334.333130,1.000093 500.999756,1.000046 
	C500.999847,167.666519 500.999847,334.333038 500.999939,500.999786 
	C426.833344,501.000000 352.666656,501.000000 278.000000,501.000000 
M188.577927,440.954956 
	C205.435577,446.342163 222.601151,450.009308 240.354340,450.772156 
	C294.814911,453.112335 342.423889,435.968353 383.767456,400.727112 
	C386.172699,398.676880 386.410309,397.022583 384.705322,394.440277 
	C382.602081,391.254822 380.875122,387.818787 379.021393,384.471191 
	C374.451080,376.217926 369.901184,367.953369 365.200989,359.435791 
	C379.178558,351.689362 392.751251,344.167328 406.491241,336.552582 
	C410.845337,344.221954 414.873199,351.316681 419.072266,358.712982 
	C453.730377,306.490387 463.370056,232.327530 432.227173,166.810272 
	C402.961090,105.241211 353.757629,68.753387 287.382050,53.909454 
	C287.382050,115.305717 287.382050,175.823944 287.382050,237.276871 
	C288.865387,235.671967 289.752197,234.792252 290.549683,233.837875 
	C305.489563,215.958557 320.488495,198.127563 335.273804,180.121170 
	C337.440765,177.482071 339.634735,176.615143 342.878265,176.640442 
	C358.707184,176.763901 374.537598,176.688507 390.367493,176.701721 
	C391.594971,176.702744 392.822357,176.844620 394.812256,176.968491 
	C393.520020,178.596939 392.764862,179.631454 391.926117,180.593033 
	C377.590820,197.028015 363.346832,213.544861 348.812592,229.802139 
	C346.037689,232.906021 346.065521,234.963074 348.156128,238.330032 
	C357.459351,253.312973 366.486298,268.467743 375.583923,283.578003 
	C383.122559,296.098999 390.620392,308.644592 398.305756,321.461884 
	C384.661224,329.711090 371.330261,337.770721 357.692657,346.015747 
	C342.075989,320.052521 326.682098,294.459717 311.046753,268.465485 
	C303.829193,274.368347 296.893921,279.761078 290.344818,285.587860 
	C288.653748,287.092438 287.367584,289.929321 287.281525,292.206573 
	C286.937561,301.310791 287.139587,310.435638 287.139587,319.758026 
	C271.619293,319.758026 256.552734,319.758026 240.914642,319.758026 
	C240.914642,230.157715 240.914642,140.797974 240.914642,51.416210 
	C155.000320,55.215889 87.447815,115.051727 65.357864,178.161804 
	C77.918015,178.161804 90.369659,178.161804 103.043610,178.161804 
	C103.043610,189.195648 103.043610,199.911880 103.043610,211.142853 
	C86.884560,211.142853 70.981216,211.142853 55.057663,211.142853 
	C50.491714,233.871796 49.777546,256.206421 52.972008,278.668365 
	C58.355801,316.524689 73.417976,350.072479 97.832359,379.452423 
	C121.960938,408.488403 152.251617,428.489258 188.577927,440.954956 
z"/>
<path fill="#FEFEFE" opacity="1.000000" stroke="none" 
	d="
M188.196899,440.848328 
	C152.251617,428.489258 121.960938,408.488403 97.832359,379.452423 
	C73.417976,350.072479 58.355801,316.524689 52.972008,278.668365 
	C49.777546,256.206421 50.491714,233.871796 55.057663,211.142853 
	C70.981216,211.142853 86.884560,211.142853 103.043610,211.142853 
	C103.043610,199.911880 103.043610,189.195648 103.043610,178.161804 
	C90.369659,178.161804 77.918015,178.161804 65.357864,178.161804 
	C87.447815,115.051727 155.000320,55.215889 240.914642,51.416210 
	C240.914642,140.797974 240.914642,230.157715 240.914642,319.758026 
	C256.552734,319.758026 271.619293,319.758026 287.139587,319.758026 
	C287.139587,310.435638 286.937561,301.310791 287.281525,292.206573 
	C287.367584,289.929321 288.653748,287.092438 290.344818,285.587860 
	C296.893921,279.761078 303.829193,274.368347 311.046753,268.465485 
	C326.682098,294.459717 342.075989,320.052521 357.692657,346.015747 
	C371.330261,337.770721 384.661224,329.711090 398.305756,321.461884 
	C390.620392,308.644592 383.122559,296.098999 375.583923,283.578003 
	C366.486298,268.467743 357.459351,253.312973 348.156128,238.330032 
	C346.065521,234.963074 346.037689,232.906021 348.812592,229.802139 
	C363.346832,213.544861 377.590820,197.028015 391.926117,180.593033 
	C392.764862,179.631454 393.520020,178.596939 394.812256,176.968491 
	C392.822357,176.844620 391.594971,176.702744 390.367493,176.701721 
	C374.537598,176.688507 358.707184,176.763901 342.878265,176.640442 
	C339.634735,176.615143 337.440765,177.482071 335.273804,180.121170 
	C320.488495,198.127563 305.489563,215.958557 290.549683,233.837875 
	C289.752197,234.792252 288.865387,235.671967 287.382050,237.276871 
	C287.382050,175.823944 287.382050,115.305717 287.382050,53.909454 
	C353.757629,68.753387 402.961090,105.241211 432.227173,166.810272 
	C463.370056,232.327530 453.730377,306.490387 419.072266,358.712982 
	C414.873199,351.316681 410.845337,344.221954 406.491241,336.552582 
	C392.751251,344.167328 379.178558,351.689362 365.200989,359.435791 
	C369.901184,367.953369 374.451080,376.217926 379.021393,384.471191 
	C380.875122,387.818787 382.602081,391.254822 384.705322,394.440277 
	C386.410309,397.022583 386.172699,398.676880 383.767456,400.727112 
	C342.423889,435.968353 294.814911,453.112335 240.354340,450.772156 
	C222.601151,450.009308 205.435577,446.342163 188.196899,440.848328 
M201.241257,269.753082 
	C208.836349,259.021301 216.518524,248.349121 223.944427,237.501511 
	C225.246979,235.598801 226.077362,232.966492 226.101898,230.660248 
	C226.280792,213.838287 226.205414,197.013519 226.180481,180.189697 
	C226.178864,179.092621 225.930023,177.995895 225.825729,177.141190 
	C191.784882,177.141190 158.090729,177.141190 124.554306,177.141190 
	C124.554306,188.667358 124.554306,199.734985 124.554306,211.347031 
	C144.923981,211.347031 164.911789,211.347031 185.478989,211.347031 
	C164.604736,240.947083 144.456665,270.088837 123.584679,298.702545 
	C118.524139,305.640137 119.196854,312.370941 119.401794,319.646881 
	C155.231674,319.646881 190.625549,319.646881 225.898010,319.646881 
	C225.898010,308.199310 225.898010,297.106415 225.898010,285.403534 
	C214.106918,285.403534 202.618515,285.403534 190.254883,285.403534 
	C194.197968,279.841766 197.550186,275.113434 201.241257,269.753082 
M286.647217,350.958618 
	C285.057373,349.129364 283.467499,347.300110 281.846375,345.434875 
	C284.217072,342.544556 286.248291,340.068115 288.403442,337.440582 
	C282.444977,335.158539 281.684937,341.152466 278.348633,342.744232 
	C277.421417,336.909180 277.421417,336.909180 273.820557,337.537750 
	C273.820557,343.279602 273.820557,349.021454 273.820557,354.705566 
	C280.110382,356.412506 276.516449,350.540161 278.596466,348.868927 
	C282.022522,350.852081 283.253815,357.115265 289.416199,354.331909 
	C288.575623,353.280396 287.874451,352.403320 286.647217,350.958618 
M228.551376,344.586548 
	C228.551376,347.891815 228.551376,351.197083 228.551376,354.985413 
	C230.204666,354.858215 231.520248,354.756989 232.713181,354.665192 
	C232.866379,352.399719 232.981873,350.691803 233.117142,348.691711 
	C237.043701,350.821594 238.223679,357.169281 244.400528,354.277435 
	C241.791275,351.228516 239.357010,348.384033 236.865067,345.472168 
	C239.083054,342.709259 241.117996,340.174347 243.152939,337.639404 
	C242.949371,337.267151 242.745804,336.894867 242.542236,336.522583 
	C240.890442,337.115295 238.992676,337.379791 237.650482,338.385620 
	C236.052689,339.583008 234.931747,341.416718 233.189667,343.461273 
	C232.605667,336.736298 232.605667,336.736298 228.550537,337.743011 
	C228.550537,339.675110 228.550537,341.659973 228.551376,344.586548 
M210.048111,336.868805 
	C206.090530,336.868805 202.132950,336.868805 198.114349,336.868805 
	C197.383255,343.162598 203.135452,338.731750 204.608429,341.672302 
	C202.176208,345.773560 199.620514,350.083008 196.795792,354.846069 
	C202.309036,354.846069 207.053665,354.846069 212.213943,354.846069 
	C212.284454,348.656799 206.569839,353.039734 204.673782,350.136383 
	C206.698990,346.832367 208.917374,343.383057 210.917618,339.811554 
	C211.335205,339.065918 210.947113,337.869049 210.048111,336.868805 
M304.600800,347.311005 
	C302.168884,345.530762 299.736969,343.750488 297.305054,341.970215 
	C298.996765,340.952728 300.481293,341.132874 301.888977,340.881897 
	C302.672394,340.742218 303.553986,340.010864 303.951630,339.300171 
	C304.171875,338.906525 303.675690,337.756439 303.176086,337.376648 
	C300.878174,335.629913 295.724518,336.481232 294.141357,338.918579 
	C291.903046,342.364563 293.340698,344.763794 296.519989,346.704376 
	C297.985809,347.599121 299.222595,348.869080 300.563232,349.968903 
	C300.314148,350.420105 300.065033,350.871277 299.815948,351.322449 
	C298.144836,350.954407 296.480011,350.357788 294.799988,350.311401 
	C293.914185,350.286926 292.790741,351.056946 292.203766,351.804993 
	C291.963409,352.111359 292.787140,353.945038 293.245270,353.994873 
	C296.275940,354.324554 299.570374,355.072968 302.294891,354.190613 
	C303.686310,353.739960 304.074677,350.192230 304.600800,347.311005 
M254.879562,347.210754 
	C256.832153,353.112915 260.243469,355.743164 265.782227,355.118073 
	C267.271881,354.949982 268.632690,353.640137 270.052643,352.854401 
	C268.628174,352.251740 267.221375,351.185608 265.776062,351.130493 
	C260.788879,350.940247 257.551117,346.929443 260.238892,343.509430 
	C261.469910,341.943024 264.443787,341.773987 266.594635,340.891754 
	C267.767273,340.410767 268.871796,339.763611 270.007050,339.191406 
	C268.995728,338.395813 268.087708,337.131104 266.956024,336.881866 
	C260.338684,335.424469 255.675369,339.174500 254.879562,347.210754 
M251.656311,352.068878 
	C251.656311,347.137268 251.656311,342.205627 251.656311,337.274017 
	C251.189163,336.969482 250.722000,336.664948 250.254852,336.360413 
	C249.218765,337.369354 247.354141,338.326782 247.287659,339.395996 
	C246.972031,344.471222 247.146606,349.576904 247.146606,354.671753 
	C247.556915,354.977020 247.967239,355.282288 248.377548,355.587555 
	C249.465347,354.716583 250.553146,353.845612 251.656311,352.068878 
z"/>
<path fill="#282828" opacity="1.000000" stroke="none" 
	d="
M201.071838,270.069092 
	C197.550186,275.113434 194.197968,279.841766 190.254883,285.403534 
	C202.618515,285.403534 214.106918,285.403534 225.898010,285.403534 
	C225.898010,297.106415 225.898010,308.199310 225.898010,319.646881 
	C190.625549,319.646881 155.231674,319.646881 119.401794,319.646881 
	C119.196854,312.370941 118.524139,305.640137 123.584679,298.702545 
	C144.456665,270.088837 164.604736,240.947083 185.478989,211.347031 
	C164.911789,211.347031 144.923981,211.347031 124.554306,211.347031 
	C124.554306,199.734985 124.554306,188.667358 124.554306,177.141190 
	C158.090729,177.141190 191.784882,177.141190 225.825729,177.141190 
	C225.930023,177.995895 226.178864,179.092621 226.180481,180.189697 
	C226.205414,197.013519 226.280792,213.838287 226.101898,230.660248 
	C226.077362,232.966492 225.246979,235.598801 223.944427,237.501511 
	C216.518524,248.349121 208.836349,259.021301 201.071838,270.069092 
z"/>
<path fill="#373737" opacity="1.000000" stroke="none" 
	d="
M286.910278,351.242432 
	C287.874451,352.403320 288.575623,353.280396 289.416199,354.331909 
	C283.253815,357.115265 282.022522,350.852081 278.596466,348.868927 
	C276.516449,350.540161 280.110382,356.412506 273.820557,354.705566 
	C273.820557,349.021454 273.820557,343.279602 273.814911,337.535889 
	C277.421417,336.909180 277.421417,336.909180 278.348633,342.744232 
	C281.684937,341.152466 282.444977,335.158539 288.403442,337.440582 
	C286.248291,340.068115 284.217072,342.544556 281.846375,345.434875 
	C283.467499,347.300110 285.057373,349.129364 286.910278,351.242432 
z"/>
<path fill="#363636" opacity="1.000000" stroke="none" 
	d="
M228.550964,344.115692 
	C228.550537,341.659973 228.550537,339.675110 228.550537,337.743011 
	C232.605667,336.736298 232.605667,336.736298 233.189667,343.461273 
	C234.931747,341.416718 236.052689,339.583008 237.650482,338.385620 
	C238.992676,337.379791 240.890442,337.115295 242.542236,336.522583 
	C242.745804,336.894867 242.949371,337.267151 243.152939,337.639404 
	C241.117996,340.174347 239.083054,342.709259 236.865067,345.472168 
	C239.357010,348.384033 241.791275,351.228516 244.400528,354.277435 
	C238.223679,357.169281 237.043701,350.821594 233.117142,348.691711 
	C232.981873,350.691803 232.866379,352.399719 232.713181,354.665192 
	C231.520248,354.756989 230.204666,354.858215 228.551376,354.985413 
	C228.551376,351.197083 228.551376,347.891815 228.550964,344.115692 
z"/>
<path fill="#353535" opacity="1.000000" stroke="none" 
	d="
M210.489212,336.874451 
	C210.947113,337.869049 211.335205,339.065918 210.917618,339.811554 
	C208.917374,343.383057 206.698990,346.832367 204.673782,350.136383 
	C206.569839,353.039734 212.284454,348.656799 212.213943,354.846069 
	C207.053665,354.846069 202.309036,354.846069 196.795792,354.846069 
	C199.620514,350.083008 202.176208,345.773560 204.608429,341.672302 
	C203.135452,338.731750 197.383255,343.162598 198.114349,336.868805 
	C202.132950,336.868805 206.090530,336.868805 210.489212,336.874451 
z"/>
<path fill="#3A3A3A" opacity="1.000000" stroke="none" 
	d="
M304.758606,347.677673 
	C304.074677,350.192230 303.686310,353.739960 302.294891,354.190613 
	C299.570374,355.072968 296.275940,354.324554 293.245270,353.994873 
	C292.787140,353.945038 291.963409,352.111359 292.203766,351.804993 
	C292.790741,351.056946 293.914185,350.286926 294.799988,350.311401 
	C296.480011,350.357788 298.144836,350.954407 299.815948,351.322449 
	C300.065033,350.871277 300.314148,350.420105 300.563232,349.968903 
	C299.222595,348.869080 297.985809,347.599121 296.519989,346.704376 
	C293.340698,344.763794 291.903046,342.364563 294.141357,338.918579 
	C295.724518,336.481232 300.878174,335.629913 303.176086,337.376648 
	C303.675690,337.756439 304.171875,338.906525 303.951630,339.300171 
	C303.553986,340.010864 302.672394,340.742218 301.888977,340.881897 
	C300.481293,341.132874 298.996765,340.952728 297.305054,341.970215 
	C299.736969,343.750488 302.168884,345.530762 304.758606,347.677673 
z"/>
<path fill="#373737" opacity="1.000000" stroke="none" 
	d="
M254.851898,346.806152 
	C255.675369,339.174500 260.338684,335.424469 266.956024,336.881866 
	C268.087708,337.131104 268.995728,338.395813 270.007050,339.191406 
	C268.871796,339.763611 267.767273,340.410767 266.594635,340.891754 
	C264.443787,341.773987 261.469910,341.943024 260.238892,343.509430 
	C257.551117,346.929443 260.788879,350.940247 265.776062,351.130493 
	C267.221375,351.185608 268.628174,352.251740 270.052643,352.854370 
	C268.632690,353.640137 267.271881,354.949982 265.782227,355.118073 
	C260.243469,355.743164 256.832153,353.112915 254.851898,346.806152 
z"/>
<path fill="#484848" opacity="1.000000" stroke="none" 
	d="
M251.648621,352.521759 
	C250.553146,353.845612 249.465347,354.716583 248.377548,355.587555 
	C247.967239,355.282288 247.556915,354.977020 247.146606,354.671753 
	C247.146606,349.576904 246.972031,344.471222 247.287659,339.395996 
	C247.354141,338.326782 249.218765,337.369354 250.254852,336.360413 
	C250.722000,336.664948 251.189163,336.969482 251.656311,337.274017 
	C251.656311,342.205627 251.656311,347.137268 251.648621,352.521759 
z"/>
</svg>